<?xml version="1.0" encoding="utf-8"?>
<!-- Generator: Adobe Illustrator 19.0.0, SVG Export Plug-In . SVG Version: 6.00 Build 0)  -->
<svg version="1.1" id="Capa_1" xmlns="http://www.w3.org/2000/svg" xmlns:xlink="http://www.w3.org/1999/xlink" x="0px" y="0px"
	 viewBox="-83.5 242.9 176.2 309.1" style="enable-background:new -83.5 242.9 176.2 309.1;" xml:space="preserve">
<style type="text/css">
	.st0{fill:#640046;}
</style>
<path class="st0" d="M-81.3,402.7L65.7,549.8c1.5,1.5,3.4,2.2,5.3,2.2s3.8-0.7,5.3-2.2l14.1-14.1c1.4-1.4,2.2-3.3,2.2-5.3
	s-0.8-3.9-2.2-5.3L-37.1,397.4L90.5,269.8c1.4-1.4,2.2-3.3,2.2-5.3c0-2-0.8-3.9-2.2-5.3l-14.1-14.1c-2.9-2.9-7.7-2.9-10.6,0
	L-81.3,392.1C-84.3,395.1-84.3,399.8-81.3,402.7z"/>
</svg>
