<?xml version="1.0" encoding="utf-8"?>
<!-- Generator: Adobe Illustrator 19.0.0, SVG Export Plug-In . SVG Version: 6.00 Build 0)  -->
<svg version="1.1" id="Layer_1" xmlns="http://www.w3.org/2000/svg" xmlns:xlink="http://www.w3.org/1999/xlink" x="0px" y="0px"
	 viewBox="0 0 507 115.2" style="enable-background:new 0 0 507 115.2;" xml:space="preserve">
<style type="text/css">
	.st0{fill:none;stroke:#2F2F2F;stroke-width:0.823;}
	.st1{fill:#751548;}
	.st2{fill:#FFFFFF;}
</style>
<g>
	<g>
		<g>
			<line id="XMLID_18_" class="st0" x1="202.3" y1="111.8" x2="202.3" y2="3.7"/>
		</g>
	</g>
	<g>
		<path class="st1" d="M238.2,73.9V44.7h14.4c3.6,0,6.1,0.6,7.4,1.9c1.4,1.2,2,3.5,2,6.7c0,3-0.3,5-1,6.1c-0.7,1.1-2.1,1.8-4.2,2.2
			v0.2c3.2,0.2,4.9,2.1,4.9,5.7v6.4h-5.5v-5.3c0-3-1.5-4.5-4.5-4.5h-8v9.8H238.2z M243.7,59.4h8c1.9,0,3.2-0.3,3.8-1
			c0.6-0.7,0.9-2,0.9-4.1c0-2.1-0.3-3.4-0.8-4c-0.5-0.6-1.7-0.9-3.5-0.9h-8.4V59.4z"/>
		<path class="st1" d="M290.7,44.7v18.7h3.4v4.3h-3.4v6.3h-5.5v-6.3h-15.8v-6.2l12.8-16.7H290.7z M285.1,63.4V48.9h-0.2l-11.1,14.5
			H285.1z"/>
		<path class="st1" d="M336,63.5h5.6v1c0,4.1-0.7,6.7-2.2,7.9c-1.5,1.2-4.8,1.8-9.8,1.8c-5.8,0-9.3-0.9-10.6-2.8
			c-1.3-1.9-2-6.9-2-15.1c0-4.8,0.9-8,2.7-9.5c1.8-1.5,5.6-2.3,11.3-2.3c4.2,0,7,0.6,8.4,1.9c1.4,1.3,2.1,3.7,2.1,7.4l0,0.7h-5.6
			v-0.7c0-1.9-0.4-3.1-1.1-3.7c-0.7-0.5-2.4-0.8-4.9-0.8c-3.4,0-5.5,0.4-6.2,1.3c-0.7,0.8-1,3.3-1,7.5c0,5.6,0.3,8.9,0.9,9.9
			c0.6,1,2.6,1.5,6,1.5c2.8,0,4.5-0.3,5.4-0.9c0.8-0.6,1.2-1.8,1.2-3.8L336,63.5z"/>
		<path class="st1" d="M367.1,68.3h-12.6l-1.8,5.6h-5.9l9.7-29.2h8.3l9.9,29.2h-5.8L367.1,68.3z M365.8,64.2L360.7,49l-5,15.2H365.8
			z"/>
		<path class="st1" d="M381.6,73.9V44.7h11.8h1.5c4,0,6.6,0.7,8,2.1c1.4,1.4,2.1,4,2.1,8c0,3.9-0.7,6.5-2,7.8c-1.3,1.3-4,1.9-8,1.9
			l-1.3,0h-6.5v9.4H381.6z M387.1,59.8h6.3c2.5,0,4.1-0.3,4.8-0.9c0.7-0.6,1-1.9,1-4.1c0-2.5-0.3-4-0.8-4.6c-0.6-0.6-2-0.9-4.4-0.9
			h-6.9V59.8z"/>
		<path class="st1" d="M418.4,44.7v29.2h-5.5V44.7H418.4z"/>
		<path class="st1" d="M439.6,49.7v24.3H434V49.7h-8.4v-5h22.7v5H439.6z"/>
		<path class="st1" d="M473.2,68.3h-12.6l-1.8,5.6h-5.9l9.7-29.2h8.3l9.9,29.2h-5.8L473.2,68.3z M471.9,64.2L466.9,49l-5,15.2H471.9
			z"/>
		<path class="st1" d="M493.3,44.7V69H507v5h-19.2V44.7H493.3z"/>
	</g>
	<g>
		<g>
			<path id="XMLID_3_" class="st1" d="M162.7,91.9c0,12.8-10.5,23.3-23.3,23.3H23.3C10.5,115.2,0,104.7,0,91.9V23.3
				C0,10.5,10.5,0,23.3,0h116.1c12.8,0,23.3,10.5,23.3,23.3V91.9z"/>
			<g>
				<path id="XMLID_2_" class="st2" d="M64.2,61.2v-0.2c4.8-0.8,8.1-2.5,9.9-5.1c1.7-2.6,2.6-7.2,2.6-13.9c0-7.6-1.6-12.9-4.7-15.9
					c-3.2-3.1-8.6-4.6-16.3-4.6H21.3v6.9h8.1v0h26.2c5.5,0,9,1,10.7,3c1.7,2,2.5,6.2,2.5,12.7c0,5.2-1.1,8.7-3.4,10.6
					c-2.2,1.9-6.5,2.8-12.6,2.8H29.4V45.2h-8.1v48.4h8.1V64.4h27.2c7.3,0,10.9,4.2,10.9,12.6v16.5h8.1V75.2
					C75.6,66.4,71.8,61.8,64.2,61.2z"/>
				<path id="XMLID_1_" class="st2" d="M132.8,70.1V55.7h-8.1v14.4H91.2l33.4-43.2c0.1-0.2,0.3-0.4,0.4-0.6c0.1-0.2,0.2-0.4,0.4-0.6
					c0.1-0.2,0.3-0.4,0.4-0.6c0.9-1.2,1.9-2.4,3-3.4c0-0.1,0.1-0.1,0.1-0.1h-8.6L84.5,67.4v9.5h40.2v16.6h8.1V76.9h10.7v-6.8H132.8z
					"/>
			</g>
		</g>
	</g>
</g>
<g id="XMLID_32_">
</g>
<g id="XMLID_33_">
</g>
<g id="XMLID_34_">
</g>
<g id="XMLID_35_">
</g>
<g id="XMLID_36_">
</g>
<g id="XMLID_37_">
</g>
</svg>
