<?xml version="1.0" encoding="utf-8"?>
<!-- Generator: Adobe Illustrator 19.0.0, SVG Export Plug-In . SVG Version: 6.00 Build 0)  -->
<svg version="1.1" id="Capa_1" xmlns="http://www.w3.org/2000/svg" xmlns:xlink="http://www.w3.org/1999/xlink" x="0px" y="0px"
	 viewBox="-83.5 242.9 176.2 309.1" style="enable-background:new -83.5 242.9 176.2 309.1;" xml:space="preserve">
<style type="text/css">
	.st0{fill:#640046;}
</style>
<path class="st0" d="M90.5,392.1L-56.6,245.1c-2.9-2.9-7.7-2.9-10.6,0l-14.1,14.1c-1.4,1.4-2.2,3.3-2.2,5.3c0,2,0.8,3.9,2.2,5.3
	L46.3,397.4L-81.3,525.1c-1.4,1.4-2.2,3.3-2.2,5.3s0.8,3.9,2.2,5.3l14.1,14.1c1.5,1.5,3.4,2.2,5.3,2.2s3.8-0.7,5.3-2.2L90.5,402.7
	C93.4,399.8,93.4,395.1,90.5,392.1z"/>
</svg>
