<?xml version="1.0" encoding="utf-8"?>
<!-- Generator: Adobe Illustrator 19.0.0, SVG Export Plug-In . SVG Version: 6.00 Build 0)  -->
<svg version="1.1" id="Capa_1" xmlns="http://www.w3.org/2000/svg" xmlns:xlink="http://www.w3.org/1999/xlink" x="0px" y="0px"
	 viewBox="-150 309.3 309.1 176.2" style="enable-background:new -150 309.3 309.1 176.2;" xml:space="preserve">
<style type="text/css">
	.st0{fill:#640046;}
</style>
<path class="st0" d="M9.9,483.3l147.1-147.1c1.5-1.5,2.2-3.4,2.2-5.3c0-1.9-0.7-3.8-2.2-5.3l-14.1-14.1c-1.4-1.4-3.3-2.2-5.3-2.2
	s-3.9,0.8-5.3,2.2L4.6,439.1l-127.6-127.6c-1.4-1.4-3.3-2.2-5.3-2.2c-2,0-3.9,0.8-5.3,2.2l-14.1,14.1c-2.9,2.9-2.9,7.7,0,10.6
	L-0.7,483.3C2.2,486.3,6.9,486.3,9.9,483.3z"/>
</svg>
